<svg xmlns="http://www.w3.org/2000/svg" viewBox="0 0 480 360" role="img" aria-label="Chongqing travel cover">
  <defs><linearGradient id="g" x1="0" x2="1" y1="0" y2="1"><stop stop-color="#221521"/><stop offset=".6" stop-color="#7f1d2d"/><stop offset="1" stop-color="#f97316"/></linearGradient></defs>
  <rect width="480" height="360" fill="url(#g)"/><path d="M0 265c96-70 161-38 238-70 63-26 114-74 242-44v209H0z" fill="#111827" opacity=".28"/>
  <g fill="none" stroke="#fff" stroke-width="8" stroke-linecap="round" stroke-linejoin="round" opacity=".88"><path d="M72 238c98-70 230-70 336 0M112 238l34-52M178 238l24-74M244 238v-88M314 238l-28-74M374 238l-42-52M96 274h300M138 274v-36M338 274v-36"/></g>
  <circle cx="84" cy="84" r="26" fill="#ffedd5" opacity=".72"/>
</svg>
